<svg width="191px" height="191px" viewBox="-6.4 -6.4 140.80 140.80" xmlns="http://www.w3.org/2000/svg" xmlns:xlink="http://www.w3.org/1999/xlink" aria-hidden="true" role="img" class="iconify iconify--noto" preserveAspectRatio="xMidYMid meet" fill="#000000" stroke="#000000" stroke-width="2.432" transform="matrix(1, 0, 0, 1, 0, 0)rotate(0)"><g id="SVGRepo_bgCarrier" stroke-width="0"></g><g id="SVGRepo_tracerCarrier" stroke-linecap="round" stroke-linejoin="round" stroke="#CCCCCC" stroke-width="8.959999999999999"><path d="M108.91 99.71H62.6l48.33-79.77c.44-.73.46-1.64.04-2.39c-.42-.74-1.21-1.2-2.06-1.2H81.06c-.25 0-.49.05-.71.13H19.09c-1.24 0-2.24 1-2.24 2.24v16.72c0 1.24 1.01 2.24 2.24 2.24h47.43l-49.44 79.75c-.45.73-.47 1.65-.06 2.4c.42.75 1.21 1.21 2.07 1.21h29.25c.25 0 .49-.05.72-.12h59.84c1.23 0 2.24-1 2.24-2.24v-16.72c.01-1.25-1-2.25-2.23-2.25z" fill="#8ecdc9"></path></g><g id="SVGRepo_iconCarrier"><path d="M108.91 99.71H62.6l48.33-79.77c.44-.73.46-1.64.04-2.39c-.42-.74-1.21-1.2-2.06-1.2H81.06c-.25 0-.49.05-.71.13H19.09c-1.24 0-2.24 1-2.24 2.24v16.72c0 1.24 1.01 2.24 2.24 2.24h47.43l-49.44 79.75c-.45.73-.47 1.65-.06 2.4c.42.75 1.21 1.21 2.07 1.21h29.25c.25 0 .49-.05.72-.12h59.84c1.23 0 2.24-1 2.24-2.24v-16.72c.01-1.25-1-2.25-2.23-2.25z" fill="#8ecdc9"></path></g></svg>
